# xmcd
#
# Track frame offsets:
#	150
#	16307
#	27008
#	37607
#	51850
#	64281
#	76713
#	86026
#	98556
#	109278
#	120245
#	130458
#	142391
#	154851
#	168001
#	181801
#	192888
#	203616
#	217496
#	228281
#	241789
#	254993
#	269718
#	280777
#	292118
#	301849
#	315631
#
# Disc length: 4430 seconds
#
# Revision: 0
# Processed by: cddbd v1.5.2PL0 Copyright (c) Steve Scherf et al.
# Submitted via: EasyCDDAExtractor 12.0.1.1
#
DISCID=81114c1b
DTITLE=Charlie Pride - Charlie Pride Country Collection 1
DYEAR=2000
DGENRE=Country
TTITLE0=Me and Bobby McGee
TTITLE1=Is Anyone Going To San Antone
TTITLE2=Love Turned Her That Way
TTITLE3=In the Jailhouse Now
TTITLE4=Crystal Chandalier
TTITLE5=Help Me Make It Through The Ni
TTITLE6=Kiss An Angel Good Morning
TTITLE7=Mountain Of Love
TTITLE8=I'm Just Me
TTITLE9=Walk On By
TTITLE10=Just Between You and Me
TTITLE11=Six days on the road
TTITLE12=The Snakes Crawl At Night
TTITLE13=Behind Closed Doors
TTITLE14=All I Have To Offer You (Is Me
TTITLE15=Does My Ring.mp3
TTITLE16=Mississippi Cotton Pickin' Del
TTITLE17=Detroyt City (I Wanna Go Home)
TTITLE18=The Easy Parts Over
TTITLE19=Amy's Eyes
TTITLE20=Amazing Grace!
TTITLE21=Whispering Hope
TTITLE22=Wings Of A Snow White Dove
TTITLE23=Hello Darlin'
TTITLE24=Why Baby Why
TTITLE25=You Win Again
TTITLE26=Roll on Mississippi
EXTD=
EXTT0=
EXTT1=
EXTT2=
EXTT3=
EXTT4=
EXTT5=
EXTT6=
EXTT7=
EXTT8=
EXTT9=
EXTT10=
EXTT11=
EXTT12=
EXTT13=
EXTT14=
EXTT15=
EXTT16=
EXTT17=
EXTT18=
EXTT19=
EXTT20=
EXTT21=
EXTT22=
EXTT23=
EXTT24=
EXTT25=
EXTT26=
PLAYORDER=
